<svg width="70" height="70" viewBox="0 0 70 70" fill="none" xmlns="http://www.w3.org/2000/svg">
<g filter="url(#filter0_dd_1_68)">
<path d="M5 31C5 14.4315 18.4315 1 35 1C51.5685 1 65 14.4315 65 31C65 47.5685 51.5685 61 35 61C18.4315 61 5 47.5685 5 31Z" fill="#F44336" shape-rendering="crispEdges"/>
<path d="M38.5 41.5V32.1667C38.5 31.8572 38.3771 31.5605 38.1583 31.3417C37.9395 31.1229 37.6428 31 37.3333 31H32.6667C32.3572 31 32.0605 31.1229 31.8417 31.3417C31.6229 31.5605 31.5 31.8572 31.5 32.1667V41.5" stroke="white" stroke-width="2.33333" stroke-linecap="round" stroke-linejoin="round"/>
<path d="M24.5 28.6667C24.4999 28.3272 24.5739 27.9919 24.7168 27.684C24.8596 27.3761 25.0679 27.1031 25.3272 26.884L33.4938 19.884C33.915 19.528 34.4486 19.3328 35 19.3328C35.5514 19.3328 36.085 19.528 36.5062 19.884L44.6728 26.884C44.9321 27.1031 45.1404 27.3761 45.2832 27.684C45.4261 27.9919 45.5001 28.3272 45.5 28.6667V39.1667C45.5 39.7855 45.2542 40.379 44.8166 40.8166C44.379 41.2542 43.7855 41.5 43.1667 41.5H26.8333C26.2145 41.5 25.621 41.2542 25.1834 40.8166C24.7458 40.379 24.5 39.7855 24.5 39.1667V28.6667Z" stroke="white" stroke-width="2.33333" stroke-linecap="round" stroke-linejoin="round"/>
</g>
<defs>
<filter id="filter0_dd_1_68" x="0" y="0" width="70" height="70" filterUnits="userSpaceOnUse" color-interpolation-filters="sRGB">
<feFlood flood-opacity="0" result="BackgroundImageFix"/>
<feColorMatrix in="SourceAlpha" type="matrix" values="0 0 0 0 0 0 0 0 0 0 0 0 0 0 0 0 0 0 127 0" result="hardAlpha"/>
<feMorphology radius="2" operator="erode" in="SourceAlpha" result="effect1_dropShadow_1_68"/>
<feOffset dy="2"/>
<feGaussianBlur stdDeviation="2"/>
<feComposite in2="hardAlpha" operator="out"/>
<feColorMatrix type="matrix" values="0 0 0 0 0 0 0 0 0 0 0 0 0 0 0 0 0 0 0.1 0"/>
<feBlend mode="normal" in2="BackgroundImageFix" result="effect1_dropShadow_1_68"/>
<feColorMatrix in="SourceAlpha" type="matrix" values="0 0 0 0 0 0 0 0 0 0 0 0 0 0 0 0 0 0 127 0" result="hardAlpha"/>
<feMorphology radius="1" operator="erode" in="SourceAlpha" result="effect2_dropShadow_1_68"/>
<feOffset dy="4"/>
<feGaussianBlur stdDeviation="3"/>
<feComposite in2="hardAlpha" operator="out"/>
<feColorMatrix type="matrix" values="0 0 0 0 0 0 0 0 0 0 0 0 0 0 0 0 0 0 0.1 0"/>
<feBlend mode="normal" in2="effect1_dropShadow_1_68" result="effect2_dropShadow_1_68"/>
<feBlend mode="normal" in="SourceGraphic" in2="effect2_dropShadow_1_68" result="shape"/>
</filter>
</defs>
</svg>
