<svg width="70" height="70" viewBox="0 0 70 70" fill="none" xmlns="http://www.w3.org/2000/svg">
<g filter="url(#filter0_dd_1_57)">
<path d="M5 31C5 14.4315 18.4315 1 35 1C51.5685 1 65 14.4315 65 31C65 47.5685 51.5685 61 35 61C18.4315 61 5 47.5685 5 31Z" fill="#2196F3" shape-rendering="crispEdges"/>
<path d="M32.6667 31H37.3333" stroke="white" stroke-width="2.33333" stroke-linecap="round" stroke-linejoin="round"/>
<path d="M32.6667 26.3333H37.3333" stroke="white" stroke-width="2.33333" stroke-linecap="round" stroke-linejoin="round"/>
<path d="M37.3333 41.5V38C37.3333 37.3811 37.0875 36.7877 36.6499 36.3501C36.2123 35.9125 35.6188 35.6666 35 35.6666C34.3812 35.6666 33.7877 35.9125 33.3501 36.3501C32.9125 36.7877 32.6667 37.3811 32.6667 38V41.5" stroke="white" stroke-width="2.33333" stroke-linecap="round" stroke-linejoin="round"/>
<path d="M28 28.6667H25.6667C25.0478 28.6667 24.4543 28.9125 24.0167 29.3501C23.5792 29.7877 23.3333 30.3811 23.3333 31V39.1666C23.3333 39.7855 23.5792 40.379 24.0167 40.8166C24.4543 41.2541 25.0478 41.5 25.6667 41.5H44.3333C44.9522 41.5 45.5456 41.2541 45.9832 40.8166C46.4208 40.379 46.6667 39.7855 46.6667 39.1666V27.5C46.6667 26.8811 46.4208 26.2877 45.9832 25.8501C45.5456 25.4125 44.9522 25.1667 44.3333 25.1667H42" stroke="white" stroke-width="2.33333" stroke-linecap="round" stroke-linejoin="round"/>
<path d="M28 41.5V22.8333C28 22.2145 28.2458 21.621 28.6834 21.1834C29.121 20.7458 29.7145 20.5 30.3333 20.5H39.6667C40.2855 20.5 40.879 20.7458 41.3166 21.1834C41.7542 21.621 42 22.2145 42 22.8333V41.5" stroke="white" stroke-width="2.33333" stroke-linecap="round" stroke-linejoin="round"/>
</g>
<defs>
<filter id="filter0_dd_1_57" x="0" y="0" width="70" height="70" filterUnits="userSpaceOnUse" color-interpolation-filters="sRGB">
<feFlood flood-opacity="0" result="BackgroundImageFix"/>
<feColorMatrix in="SourceAlpha" type="matrix" values="0 0 0 0 0 0 0 0 0 0 0 0 0 0 0 0 0 0 127 0" result="hardAlpha"/>
<feMorphology radius="2" operator="erode" in="SourceAlpha" result="effect1_dropShadow_1_57"/>
<feOffset dy="2"/>
<feGaussianBlur stdDeviation="2"/>
<feComposite in2="hardAlpha" operator="out"/>
<feColorMatrix type="matrix" values="0 0 0 0 0 0 0 0 0 0 0 0 0 0 0 0 0 0 0.1 0"/>
<feBlend mode="normal" in2="BackgroundImageFix" result="effect1_dropShadow_1_57"/>
<feColorMatrix in="SourceAlpha" type="matrix" values="0 0 0 0 0 0 0 0 0 0 0 0 0 0 0 0 0 0 127 0" result="hardAlpha"/>
<feMorphology radius="1" operator="erode" in="SourceAlpha" result="effect2_dropShadow_1_57"/>
<feOffset dy="4"/>
<feGaussianBlur stdDeviation="3"/>
<feComposite in2="hardAlpha" operator="out"/>
<feColorMatrix type="matrix" values="0 0 0 0 0 0 0 0 0 0 0 0 0 0 0 0 0 0 0.1 0"/>
<feBlend mode="normal" in2="effect1_dropShadow_1_57" result="effect2_dropShadow_1_57"/>
<feBlend mode="normal" in="SourceGraphic" in2="effect2_dropShadow_1_57" result="shape"/>
</filter>
</defs>
</svg>
